<?xml version="1.0" encoding="utf-8"?>
<!-- Svg Vector Icons : http://www.onlinewebfonts.com/icon -->
<!DOCTYPE svg PUBLIC "-//W3C//DTD SVG 1.1//EN" "http://www.w3.org/Graphics/SVG/1.1/DTD/svg11.dtd">
<svg version="1.1" xmlns="http://www.w3.org/2000/svg" xmlns:xlink="http://www.w3.org/1999/xlink" x="0px" y="0px" viewBox="0 0 1000 1000" enable-background="new 0 0 1000 1000" xml:space="preserve">
<metadata> Svg Vector Icons : http://www.onlinewebfonts.com/icon </metadata>
<g><path d="M99.1,410.9c49.2,0,89.1,39.9,89.1,89.1c0,49.2-39.9,89.1-89.1,89.1C49.9,589.1,10,549.2,10,500C10,450.8,49.9,410.9,99.1,410.9z M500,410.9c49.2,0,89.1,39.9,89.1,89.1c0,49.2-39.9,89.1-89.1,89.1s-89.1-39.9-89.1-89.1C410.9,450.8,450.8,410.9,500,410.9z M900.9,410.9c49.2,0,89.1,39.9,89.1,89.1c0,49.2-39.9,89.1-89.1,89.1c-49.2,0-89.1-39.9-89.1-89.1C811.8,450.8,851.7,410.9,900.9,410.9z"/></g>
</svg>